<?xml version="1.0" encoding="utf-8"?>
<!-- Generator: Adobe Illustrator 27.2.0, SVG Export Plug-In . SVG Version: 6.00 Build 0)  -->
<svg version="1.1" id="Layer_1" xmlns="http://www.w3.org/2000/svg" xmlns:xlink="http://www.w3.org/1999/xlink" x="0px" y="0px"
	 viewBox="0 0 450 108" style="enable-background:new 0 0 450 108;" xml:space="preserve">
<style type="text/css">
	.st0{fill:#16538B;}
	.st1{fill:#6DABE4;}
</style>
<g>
	<path class="st0" d="M290.62,78.78c0.32,2.86,3.5,4.45,9.85,4.45c1.27,0,1.91,0,2.86-0.32c1.27-0.32,1.91-1.27,2.54-1.59
		c1.27-0.32,1.59-1.59,1.91-1.91c0.32-1.27,0.32-1.91,0.32-2.86c0-2.54-1.59-4.77-4.77-6.99c-2.86-1.91-5.72-4.13-6.99-4.77
		s-2.54-1.91-2.86-1.91c-3.5-2.86-5.72-6.99-5.72-11.76c0-1.91,0.32-3.5,1.27-5.72c0.32-1.59,1.59-2.86,2.86-4.45
		s2.54-2.54,4.13-2.86s2.86-1.27,4.45-1.27c5.72,0,9.85,1.27,12.07,3.5c2.54,1.91,4.13,4.77,4.13,8.58c0,1.91-0.32,3.5-1.91,4.77
		c-1.27,1.59-2.86,1.91-4.77,1.91c-1.59,0-2.86-0.32-4.13-1.91c-1.27-1.27-1.91-2.54-1.91-4.45c0-1.27,0.32-2.54,1.27-3.5
		c0.32-1.27,1.91-1.59,2.86-1.59c0.95,0,1.59,0,1.91,0.32c0.32,0,1.27,0.32,1.27,0.32v-0.32c0-0.32-0.32-1.27-1.27-1.59
		c-0.32-0.32-1.27-1.27-1.91-1.27c-1.27-0.32-1.91-0.32-2.86-0.32c-1.27,0-1.91-0.32-3.5-0.32c-0.32,0-1.59,0-1.91,0.32
		c-1.27,0.32-1.59,1.27-1.91,1.59s-1.27,1.27-1.59,1.91c-0.32,0.32-0.32,1.59-0.32,1.91c0,1.27,0,2.54,0.32,3.5
		c0.32,1.27,1.27,1.91,1.91,2.86c1.27,1.27,1.91,1.91,3.5,2.86c1.59,1.27,2.86,1.91,5.72,3.5c1.59,1.27,2.86,1.91,4.45,2.54
		c1.59,1.27,2.54,1.59,3.5,2.54c0.64,1.27,1.59,1.91,1.91,3.5c0.32,1.27,0.32,2.54,0.32,4.45c0,1.59-0.32,3.5-1.27,4.77
		c-0.32,1.59-1.59,3.5-2.54,4.45c-1.27,1.59-2.54,2.54-4.13,3.5c-1.59,1.27-3.5,1.59-6.04,1.59c-5.72,0-10.17-1.27-13.35-2.86
		c-3.5-1.91-4.77-4.77-4.77-8.58c0-1.91,0.32-3.5,1.91-4.77s2.86-1.91,4.77-1.91c1.59,0,2.86,0.32,4.13,1.91
		c1.27,1.27,1.91,2.54,1.91,4.45c0,1.27-0.32,2.54-1.59,3.5c-1.27,1.27-1.91,1.59-3.5,1.59c-0.32,0-1.27,0-1.27-0.32
		C291.25,78.78,290.62,78.78,290.62,78.78L290.62,78.78z"/>
	<path class="st0" d="M318.9,85.14v-5.08h0.32c4.13,0,6.67-2.54,6.67-7.63V60.36c0-2.86,0-7.63,0.32-14.3
		c0-6.67,0.32-14.62,0.32-25.1c0-1.59-0.32-2.54-1.59-2.86c-1.27-1.27-2.54-1.59-4.13-1.59c0-1.27,0-1.59,0-1.91s0-1.27-0.32-1.59
		c1.91-0.32,4.45-1.27,7.63-1.91c2.86-0.32,6.04-1.59,10.17-2.54c0,1.91,0,4.13-0.32,5.72c0,1.59,0,2.54,0,3.5c0,1.59,0,4.45,0,8.26
		c0,3.5,0,8.58,0,14.93c1.59-1.91,2.86-2.86,4.13-3.5c1.27-0.32,2.54-0.32,4.13-0.32c2.54,0,4.45,1.27,6.04,2.54
		c1.59,1.59,2.86,3.5,4.13,6.04c1.27,2.54,1.91,4.77,2.54,7.63c0.32,2.54,0.32,4.77,0.32,6.67c0,2.54,0,4.45,0,6.99s0,4.77,0,6.99
		c0,1.59,0,2.86,0.32,4.45c0.32,1.27,1.27,1.91,1.59,1.91c1.27,0,1.59-0.32,1.59-1.59s0.32-1.91,0.32-2.54c0-0.32,0-1.27,0-1.59
		s0-1.27,0-1.27c0.32,0,0.32,0,1.27,0c0.95,0,0.32,0,1.27,0c0.32,0,1.27,0,1.27,0c0.32,0,1.27,0,1.27,0c0,0.32,0,0.32,0,1.27
		s0,0.32,0,1.27c0,2.86-0.32,4.77-1.91,7.63c-1.59,1.91-3.5,2.86-6.67,2.86c-1.91,0-3.5,0-4.77-0.32c-1.59-0.32-2.54-1.59-2.86-2.54
		c-0.32-1.27-1.27-2.54-1.59-4.13c0-1.59-0.32-3.5-0.32-5.72c0-1.91,0-4.13,0-6.04s0-3.5,0-5.72c0-1.59,0-2.86-0.32-4.45
		c0-1.59-0.32-2.86-1.27-4.45c-0.32-1.59-1.27-2.86-1.91-4.13c-1.27-1.27-1.59-1.91-2.86-2.86c-1.27-1.27-1.91-1.27-2.86-1.27
		c-1.59,0-2.54,0.32-2.86,1.91c0,1.91,0,4.45-0.32,6.99c0,2.54,0,4.45,0,6.99c0,2.54,0,5.72,0,8.26s0,5.72,0.32,8.58
		c0,1.27,0.32,1.91,1.59,2.54c1.27,0.32,1.91,0.32,3.5,0.32h0.32h0.32v4.77h-23.2v-1.27h-1.59L318.9,85.14L318.9,85.14z"/>
	<path class="st0" d="M383.72,87.36c-10.49,0-16.21-9.85-16.21-29.23c0-2.86,0.32-5.72,1.59-8.58c1.27-2.54,1.91-4.77,3.5-7.63
		c1.59-1.91,2.86-4.13,4.77-4.77c1.91-1.59,4.13-1.91,6.67-1.91c12.07,0,18.11,8.58,18.11,26.37c0,4.13-0.32,7.63-1.27,11.12
		c-1.27,2.86-1.91,6.04-3.5,8.26s-3.5,4.13-5.72,4.77C389.12,86.41,386.58,87.36,383.72,87.36L383.72,87.36z M384.03,82.92
		c6.04,0,8.58-6.67,8.58-20.02c0-2.86,0-6.04-0.32-8.9c-0.32-2.54-1.27-4.77-1.59-6.99c-0.32-1.91-1.59-3.5-1.91-4.45
		c-1.27-1.27-1.59-1.59-2.54-1.59c-5.72,0-8.26,6.67-8.26,20.34C377.68,74.97,379.59,82.92,384.03,82.92L384.03,82.92z"/>
	<path class="st0" d="M403.73,98.17c1.91,0,2.86-1.27,4.13-1.91c1.27-1.59,1.59-2.86,1.59-6.04c0-4.13,0-8.26,0-12.71
		c0-4.13,0-8.26,0-12.71c0-2.54,0-4.77,0-7.63s0-4.77-0.32-6.99c0-1.91-0.32-3.5-1.27-4.77c-0.95-1.27-1.59-1.91-1.91-1.91
		s-1.91,0.32-3.5,1.27c0-0.32,0-0.32,0-1.27s0-0.32,0-1.27c0-1.27,0-1.59-0.32-2.54c1.91-1.27,3.5-1.59,5.72-2.54
		c2.22-1.27,4.13-1.91,6.04-2.86c0.32,0,1.27,0,1.27,0h0.32h0.32c0,1.27,0,2.54,0,2.86c0,1.27,0.32,1.59,0.32,2.54
		c0,0,0.32-0.32,1.27-1.27c0.32-0.32,1.27-1.27,1.59-1.59s1.59-1.27,2.54-1.59s2.54-0.32,4.13-0.32c10.49,0,15.89,8.9,15.89,27.64
		c0,2.54-0.32,5.72-1.27,8.26c-1.27,2.54-1.91,4.77-2.86,6.99c-1.59,1.91-2.86,4.13-4.45,4.77c-1.91,1.59-3.5,1.91-6.04,1.91
		c-1.91,0-3.5-0.32-4.45-1.59c-1.27-1.27-1.91-2.54-2.86-3.5v0.32c0,0,0,0.32,0,1.59c0,0.32,0,1.59,0,2.86c0,1.59,0,3.5,0,6.04
		c0,1.91,0.32,3.5,1.27,4.45c0.64,1.27,1.91,1.59,4.45,1.59h0.32c0,0,0.32,0,1.27,0c-0.32,0.32-0.32,1.59-0.32,1.91
		c0,1.27,0,1.59,0,2.54c-0.32,0-1.59,0-2.86,0c-1.59,0-2.86,0-4.45,0.32c-1.59,0-2.86,0-4.77,0.32c-1.59,0-2.54,0-3.5,0
		c-3.5,0-5.72-0.32-6.04-1.27v-3.5h-0.32v1.59h-0.93V98.17z M419.3,64.8c0,8.58,1.91,13.03,6.04,13.03c4.45,0,6.99-6.04,6.99-18.75
		s-2.54-18.75-6.99-18.75c-4.13,0-6.04,4.13-6.04,12.07V64.8L419.3,64.8z"/>
</g>
<path class="st1" d="M17.03,25.72c-0.32,7.94,5.72,18.11,12.07,20.97c6.99,3.5,12.07-1.59,12.07-9.53
	c-0.32-7.63-6.04-17.48-13.66-20.02c-4.13-1.59-7.94,0-9.53,4.13C17.35,22.86,17.03,25.08,17.03,25.72L17.03,25.72z M67.24,37.48
	c0,4.45,1.27,7.94,4.45,10.17c0.32,0.32,1.27,0.32,1.91,1.27c0.32,0,2.86,0,4.13,0c6.04-1.59,7.94-5.72,7.63-12.07
	c0-1.91-0.32-4.13-0.32-5.72c-0.32-1.27-1.91-4.45-2.54-5.08c-4.45-4.77-10.17,1.27-13.03,6.36C68.51,33.66,67.24,35.89,67.24,37.48
	L67.24,37.48z M31.97,78.78c0,3.5,1.59,8.58,4.45,10.49c1.27,1.27,4.45,2.54,5.72,2.54s1.91,0,2.54,0c1.27,0,5.72-1.91,6.04-2.54
	c1.59-1.27,4.77-6.04,7.94-8.58c1.27-1.27,5.72-4.13,6.99-4.77c1.91-1.27,4.45-2.54,6.36-2.86c6.36-1.91,10.49-1.91,12.71-7.63
	c1.27-1.91,1.27-4.45,0.32-6.36c0-1.27-1.59-3.5-1.91-4.13c-1.59-1.91-4.13-3.5-6.04-3.5s-4.45,1.27-6.99,1.27s-5.72-1.27-7.94-2.54
	c-4.77-4.13-6.04-6.99-11.76-7.63c-4.13-0.32-7.63,1.91-9.53,4.77c-0.32,1.27-1.59,4.13-1.91,5.72c-1.27,4.45-1.27,7.94-2.86,12.07
	c-1.91,4.13-5.72,10.17-6.04,11.76C31.97,77.2,31.97,77.83,31.97,78.78L31.97,78.78z M8.45,54.95c0,0.32,0,1.27,0,1.91
	c0.32,1.59,3.5,7.94,4.77,10.49c1.59,1.91,5.08,5.08,7.94,5.08c2.86,0.32,6.04-1.27,7.63-2.54c1.91-2.54,4.13-6.36,3.5-8.9
	c-1.27-3.5-2.86-6.36-6.04-7.94c-1.59-1.27-2.54-1.59-4.13-1.91c-1.27-0.32-6.36-1.59-7.63-1.59C11.95,48.92,9.72,50.82,8.45,54.95
	L8.45,54.95z M43.41,21.27c0,6.36,2.86,15.89,8.9,17.16c6.36,1.91,10.17-5.72,11.12-11.12C64.7,20.32,61.52,9.2,53.9,6.97
	c-2.86-0.32-6.04,1.59-7.94,4.77C44.04,14.6,43.41,18.41,43.41,21.27L43.41,21.27z"/>
<g>
	<path class="st0" d="M97.42,89.27c0.32-2.86,0.64-6.04,0.64-8.9c6.99-0.32,10.8-4.45,10.8-12.39c0-5.4,0-9.85-0.32-13.98
		c-0.32-3.81-0.32-6.99-0.32-10.17c0-2.22,0-4.45,0.32-6.04c0-1.59,0.32-2.86,0.32-4.13s0.32-2.22,0.32-3.5
		c0-0.64,0.32-1.91,0.32-2.54c0-1.91-0.64-3.5-2.22-4.45c-1.59-0.64-3.5-1.59-4.77-1.59c0.32-1.59,0.32-3.5,0.32-4.45
		c0-1.59,0-2.54,0-4.13c2.86-0.64,6.99-1.27,12.39-1.27h15.25c5.72,0,8.9,1.59,11.12,4.77s3.5,7.94,3.5,14.3
		c0,9.53-3.81,15.25-11.12,17.16c1.91,0.32,3.5,0.64,4.77,1.91c1.59,1.27,2.54,2.54,3.81,4.45s1.91,3.81,2.54,6.36
		c0.64,2.54,0.64,4.77,0.64,7.63c0,4.45-0.32,7.94-1.59,10.8c-1.27,2.54-2.54,4.77-4.77,6.04c-2.22,1.59-4.77,2.22-8.26,2.54
		c-3.5,0.64-6.99,0.64-12.07,0.64H96.79v0.95L97.42,89.27L97.42,89.27z M126.66,46.69c0.64,0,1.91-0.32,2.54-1.27
		c0.64-0.64,1.59-1.91,2.54-3.5c0.64-1.59,1.59-2.86,1.91-4.45c0.32-1.91,0.64-3.5,0.64-5.4c0-1.27-0.32-2.54-0.32-3.81
		c-0.32-1.27-0.64-2.22-1.27-3.5c-0.32-0.64-1.27-1.27-1.91-1.91s-2.22-0.64-3.81-0.64h-6.04c0.32,3.81,0.32,6.99,0.32,9.53
		s0,3.81,0,4.45c0,3.5-0.32,6.99-0.64,11.12h6.04C126.66,47.01,126.66,46.69,126.66,46.69z M119.03,77.83
		c1.59,0.64,2.54,1.27,4.13,1.27c1.27,0,2.22-0.32,3.5-1.27c1.27-0.64,1.91-1.91,2.54-2.86c0.64-0.95,1.59-2.54,1.91-3.81
		c0.32-1.59,0.64-2.54,0.64-4.13c0-9.53-2.54-13.98-7.63-13.98c-2.22,0-3.81,0.32-4.77,0.32c0,1.59,0,4.45,0,8.9
		c0,1.59,0,3.5-0.32,6.04C119.35,71.48,119.35,74.65,119.03,77.83L119.03,77.83z"/>
	<path class="st0" d="M174.95,83.23c-3.5,3.81-7.63,5.72-12.07,5.72c-4.13,0-7.63-1.27-10.17-3.5s-3.81-5.72-3.81-9.85
		c0-2.54,0.32-4.77,1.27-6.99c0.64-1.91,1.91-3.81,3.5-5.72c1.59-1.59,3.5-2.54,5.72-3.5c1.91-0.64,4.45-1.27,6.99-1.27
		c0.64,0,1.27,0,1.91,0s1.59,0,1.91,0.32c0.32-0.64,0.32-2.22,0.32-4.13c0-8.58-2.86-12.39-8.58-12.39c-2.54,0-4.13,1.59-5.72,4.13
		c0.64-0.32,1.91-0.64,3.5-0.64c2.54,0,4.13,1.91,4.13,6.36c0,0.64-0.32,1.59-0.64,1.91c-0.32,0.64-0.64,1.27-1.59,1.91
		c-0.64,0.32-1.59,0.64-1.91,1.59c-0.64,0.32-1.59,0.32-1.91,0.32c-4.13,0-6.36-2.86-6.36-8.58c0-3.81,1.59-6.36,4.45-8.58
		c3.5-1.91,7.63-2.86,13.35-2.86c4.13,0,6.99,1.91,8.9,5.72c1.91,3.81,2.54,9.85,2.54,18.11c0,0.64,0,1.59,0,2.54
		c0,1.27,0,2.22,0,3.81s0,2.54,0,3.81s0,1.91,0,2.54c0,6.99,1.27,10.8,3.81,10.8c0.64,0,1.59-0.32,2.54-0.64
		c0.32,0.64,0.32,1.59,0.32,2.54c0,1.59-0.32,2.54-1.27,2.54c-0.64,0.32-1.91,0.32-2.86,0.32c-1.91,0-3.5-0.64-4.77-1.91
		C176.86,86.09,175.91,84.82,174.95,83.23L174.95,83.23z M170.51,72.43c0-0.64,0-2.22,0-3.5c0-1.59,0-2.54,0.32-4.45
		c-0.64-0.32-1.59-0.32-1.91-0.32c-0.64,0-1.59-0.32-1.91-0.32c-1.91,0-3.81,0.64-4.77,2.54c-1.59,1.91-1.91,4.13-1.91,6.67
		c0,2.86,0.64,5.4,2.22,6.99c1.59,1.91,3.5,2.86,6.04,2.86c0.64,0,1.27-0.32,1.59-0.64c0.32-0.64,0.64-1.27,0.64-1.91
		c0.32-0.64,0.32-1.59,0.32-1.91c0-0.32,0-1.27,0-1.59c0-1.59,0-2.22-0.32-3.5C170.51,73.38,170.51,72.75,170.51,72.43L170.51,72.43
		z"/>
	<path class="st0" d="M210.54,82.92c0,0.32,0,0.64,0.32,1.27c0,0.32,0,0.64,0,1.27c0,0.32,0,0.64,0,1.59c0,0.32,0,0.64-0.32,1.59
		c-1.91-0.32-4.13-0.32-6.04-0.32c-1.91,0-4.13,0-6.04,0c-1.91,0-3.81,0-5.72,0s-3.81,0.32-5.72,0.32c0-0.32,0-0.64-0.32-1.59
		c0-0.32,0-0.64,0-1.59c0-0.32,0-0.64,0-1.27s0-0.64,0.32-1.27c2.86-0.64,4.77-1.27,5.72-1.91c0.64-0.64,1.27-1.59,1.27-2.22
		c0.32-2.54,0.32-4.77,0.32-7.63c0-2.54,0-4.77,0-6.99s0-4.45,0-6.67s-0.32-4.45-0.32-6.67c-0.32-1.59-0.64-2.86-1.91-3.81
		c-0.64-0.64-2.22-1.59-3.81-1.59c0-0.64,0-1.59,0-1.91c0-0.64-0.32-1.59-0.32-1.91c1.91-0.64,4.45-1.59,6.99-1.91
		c2.54-0.64,5.72-1.59,8.9-2.22c-0.32,1.59-0.32,3.5-0.32,4.77c0,1.59,0,3.5,0,4.77c0.32-1.59,1.27-2.54,1.91-3.81
		s1.59-1.91,2.54-2.54c0.64-0.64,1.91-1.59,2.54-1.91s1.91-0.64,2.54-0.64c3.5,0,5.72,1.27,6.99,3.5c1.59,1.91,2.54,4.77,2.54,7.94
		c0,0.64-0.32,1.91-0.32,2.86c-0.32,1.27-0.64,1.91-1.27,2.86c-0.32,0.64-1.27,1.91-1.91,2.22c-0.64,0.64-1.59,0.64-2.54,0.64
		c-2.22,0-4.13-0.64-5.72-1.91s-2.54-2.54-2.54-4.77c0-1.59,0.32-2.54,1.27-3.81c0.64-1.27,1.91-1.59,3.81-1.59
		c0.32,0,0.64,0,1.27,0.32c0.32,0.32,0.64,0.32,0.64,0.32v-0.32c0-1.91-1.27-2.86-3.5-2.86c-5.72,0-8.58,6.36-8.58,19.07
		c0,4.45,0,7.94,0,10.8s0.32,4.77,0.64,6.36c0.32,1.59,0.64,2.54,1.59,3.5c0.64,0.32,1.91,0.64,3.5,0.64
		C210.22,82.92,210.54,82.92,210.54,82.92L210.54,82.92z"/>
	<path class="st0" d="M247.72,82.92c0,0.32,0,0.64,0,1.27s0,0.64,0,1.27c0,0.32,0,0.64,0,1.27s0,0.64,0,1.59
		c-4.45,0.32-8.9,0.32-13.03,0.32c-3.5,0-6.67,0-10.17-0.32c0-0.32,0-0.64-0.32-1.59c0-0.32,0-0.64,0-1.59c0-0.32,0-0.64,0-1.27
		c0-0.32,0-0.64,0.32-1.27c4.45,0,6.67-2.54,6.67-7.63c0-0.64,0-1.27-0.32-1.91c0-0.32-0.32-1.59-0.32-2.54
		c0-1.27-0.32-2.86-0.32-5.72c0-2.22,0-5.72,0-10.17c0-1.91,0-4.45,0.32-6.99c0.32-2.86,0.32-5.72,0.32-8.9
		c0.32-2.86,0.32-6.04,0.32-8.58c0.32-2.86,0.32-5.72,0.32-7.94c0-1.59-0.32-2.54-1.59-3.5c-1.27-0.64-2.54-1.59-4.45-1.59
		c0-0.64,0-1.59,0-1.91s-0.32-1.27-0.32-1.91c1.91-0.64,4.45-1.27,6.99-1.91c2.54-0.64,6.36-1.59,10.17-2.54
		c-0.64,3.5-0.64,6.36-1.27,9.85c-0.32,3.5-0.32,6.99-0.32,12.07c0,4.45,0,8.9,0,13.03c0,4.45,0,8.9,0,13.03
		c0.64-0.32,1.59-1.59,3.5-3.5c1.59-1.59,3.81-4.13,6.99-6.99c0.32-0.32,0.64-0.64,0.64-1.59c0-0.64-0.64-1.59-2.54-1.59h-0.64
		c0-0.32,0-0.64,0-1.59c0-0.32,0-0.64,0-1.59c0-0.32,0-0.64,0-1.59c0-0.32,0-0.64,0-1.59c3.5,0.32,6.36,0.32,9.85,0.32
		c3.5,0,6.36,0,9.85-0.32c0,0.32,0,0.64-0.32,1.27c0,0.32,0,0.64,0,1.27c0,0.32,0,0.64,0,1.59c0,0.32,0,0.64,0.32,1.59
		c-1.91,0-3.81,0.32-5.72,1.27c-1.91,0.64-3.81,1.91-5.72,3.5s-3.5,2.86-4.77,4.77c-1.59,1.91-2.86,3.81-3.81,6.04h0.64
		c2.54,0,4.77,0.64,6.67,1.91c1.91,1.27,3.81,2.54,4.77,4.45c1.59,1.91,2.22,3.81,2.86,6.04c0.64,2.22,0.64,4.45,0.64,6.67
		c0,1.59,0,1.91,0.32,2.54c0.32,0.32,0.32,0.64,1.27,0.64c0.64,0,0.64-0.32,1.27-0.32c0.32-0.32,0.32-0.64,0.64-1.59
		c0.32-0.64,0.32-1.27,0.32-1.59c0-0.64,0-1.27,0-1.91c0-0.32,0-0.64,0-0.64c0-0.32,0-0.64,0-0.64c0.32,0,0.64,0,0.64-0.32
		c0.32,0,0.64,0,0.64,0c0.32,0,0.64,0,1.27,0c0.32,0,0.64,0,1.27,0.32c0,0.32,0,0.64,0,1.27c0,0.32,0,0.64,0,1.27
		c0,2.86-0.64,5.4-1.91,6.99c-1.59,1.91-3.5,2.86-6.36,2.86s-5.4-0.32-6.67-1.59c-1.59-1.27-2.22-2.54-2.54-4.13
		c-0.32-1.59-0.64-3.81-0.64-5.72s-0.32-4.13-0.64-6.04c-0.32-0.64-0.64-1.91-1.27-2.54c-0.64-0.64-1.59-1.59-1.91-1.91
		c-0.64-0.32-1.59-0.64-2.22-1.27c-0.64-0.32-1.59-0.32-1.91-0.32c-2.22,0-3.81,1.91-3.81,5.72v6.67c0,2.22,0.32,3.81,1.59,4.77
		C243.91,81.96,245.49,82.92,247.72,82.92L247.72,82.92z"/>
</g>
</svg>
